<?xml version="1.0" standalone="no"?>
<!DOCTYPE svg PUBLIC "-//W3C//DTD SVG 20010904//EN"
 "http://www.w3.org/TR/2001/REC-SVG-20010904/DTD/svg10.dtd">
<svg version="1.0" xmlns="http://www.w3.org/2000/svg"
 width="512.000000pt" height="512.000000pt" viewBox="0 0 512.000000 512.000000"
 preserveAspectRatio="xMidYMid meet">
<metadata>
Created by potrace 1.11, written by Peter Selinger 2001-2013
</metadata>
<g transform="translate(0.000000,512.000000) scale(0.100000,-0.100000)"
fill="#000000" stroke="none">
<path d="M2510 4790 c-30 -4 -80 -11 -110 -14 -60 -8 -219 -52 -334 -93 -351
-126 -670 -382 -892 -716 -113 -169 -215 -413 -258 -617 -45 -212 -46 -223
-46 -1662 0 -753 3 -1368 8 -1368 7 0 179 63 337 123 105 40 427 161 500 187
28 10 93 35 145 55 52 20 118 45 145 55 28 10 111 42 185 70 74 29 151 56 170
62 19 6 40 13 45 18 6 4 44 19 85 33 41 14 147 53 235 87 88 34 189 72 225 85
36 13 108 40 160 60 52 20 120 45 150 55 353 119 641 312 866 582 55 65 184
250 184 263 0 2 12 26 28 52 67 117 140 323 177 503 21 100 27 161 30 305 2
99 0 216 -5 260 -18 159 -88 410 -148 534 -12 25 -22 49 -22 54 0 16 -131 228
-182 297 -215 284 -517 511 -838 627 -100 37 -259 81 -315 88 -166 21 -225 25
-340 24 -71 -1 -155 -5 -185 -9z m-508 -1019 c92 -40 138 -121 138 -242 0
-169 -91 -271 -245 -272 -157 -1 -245 93 -245 263 0 121 46 205 134 246 65 30
155 32 218 5z m1031 -9 c40 -23 66 -60 73 -103 6 -35 5 -36 -25 -37 -26 -1
-34 5 -42 26 -17 45 -49 71 -94 78 -70 10 -135 -34 -135 -91 0 -30 44 -54 138
-77 53 -13 110 -32 127 -43 61 -42 67 -154 11 -210 -26 -26 -112 -55 -160 -55
-101 0 -196 75 -196 155 0 22 4 25 35 25 30 0 35 -3 35 -23 0 -32 27 -67 66
-83 126 -53 261 69 152 136 -18 11 -70 28 -117 39 -100 24 -131 44 -149 96
-24 72 22 157 100 183 44 15 144 6 181 -16z m-1536 -5 c38 -20 63 -63 63 -109
0 -37 -33 -98 -52 -98 -7 0 1 -9 19 -20 94 -57 80 -202 -24 -246 -21 -9 -71
-14 -137 -14 -99 0 -104 1 -110 23 -11 41 -7 447 5 469 10 19 18 20 107 16 65
-3 108 -10 129 -21z m1021 -9 l3 -27 -78 -3 -78 -3 -3 -222 -2 -223 -35 0 -35
0 0 225 0 225 -75 0 -75 0 0 30 0 30 188 -2 187 -3 3 -27z m155 25 c2 -5 1
-37 -2 -72 -6 -54 -11 -67 -36 -89 -26 -22 -30 -23 -33 -8 -2 10 3 25 12 35
20 22 21 61 1 61 -11 0 -15 11 -15 40 0 39 1 40 34 40 19 0 37 -3 39 -7z
m-1140 -584 c49 -13 103 -61 117 -104 14 -41 7 -55 -25 -55 -18 0 -30 10 -45
39 -36 72 -148 92 -221 41 -46 -34 -69 -91 -69 -179 0 -134 53 -201 159 -201
88 0 151 54 151 130 l0 30 -75 0 -75 0 0 30 0 30 110 0 110 0 0 -135 c0 -129
-1 -135 -21 -135 -13 0 -23 10 -31 30 l-10 30 -34 -29 c-39 -35 -82 -45 -163
-39 -126 9 -196 100 -195 253 2 200 138 314 317 264z m610 -23 c69 -40 100
-98 105 -200 5 -98 -8 -151 -51 -208 -68 -91 -206 -120 -312 -67 -90 46 -131
133 -123 268 7 114 58 195 145 227 62 23 180 14 236 -20z m1230 9 c42 -20 85
-75 89 -115 3 -22 -1 -25 -27 -25 -22 0 -33 7 -43 27 -17 36 -57 66 -98 74
-133 25 -226 -99 -196 -260 19 -103 67 -146 161 -146 85 0 134 40 147 120 l7
40 -82 0 -81 0 0 30 0 30 115 0 115 0 0 -135 0 -135 -24 0 c-19 0 -26 7 -31
31 l-7 31 -26 -24 c-15 -13 -40 -30 -55 -36 -43 -18 -146 -14 -194 7 -179 82
-156 430 32 499 44 16 153 9 198 -13z m-953 -240 l0 -255 -35 0 -35 0 0 255 0
255 35 0 35 0 0 -255z m214 218 c13 -21 69 -112 125 -202 l101 -163 2 198 3
199 33 3 32 3 0 -256 0 -256 -41 3 -41 3 -122 193 -121 194 -3 -196 -2 -196
-35 0 -35 0 0 255 0 255 40 0 c35 0 43 -4 64 -37z m-1072 -592 c92 -40 138
-121 138 -242 0 -169 -91 -271 -245 -272 -157 -1 -245 93 -245 263 0 121 46
205 134 246 65 30 155 32 218 5z m347 -64 c143 -232 197 -317 204 -317 5 0 8
12 7 28 -1 15 -2 103 -1 195 l1 168 33 -3 32 -3 0 -250 0 -250 -40 -3 -40 -3
-125 200 -125 199 -3 -199 -2 -199 -35 0 -35 0 0 248 c0 137 3 252 7 255 3 4
22 7 42 7 34 0 39 -4 80 -73z"/>
<path d="M1330 3641 l0 -81 54 0 c71 0 98 21 100 78 1 57 -19 75 -94 80 l-60
4 0 -81z"/>
<path d="M1330 3415 l0 -85 68 0 c37 0 74 6 83 13 46 35 47 101 2 137 -20 15
-41 20 -89 20 l-64 0 0 -85z"/>
</g>
</svg>
